<?xml version="1.0" standalone="no"?>
<!DOCTYPE svg PUBLIC "-//W3C//DTD SVG 20010904//EN"
 "http://www.w3.org/TR/2001/REC-SVG-20010904/DTD/svg10.dtd">
<svg version="1.0" xmlns="http://www.w3.org/2000/svg"
 width="700.000000pt" height="700.000000pt" viewBox="0 0 700.000000 700.000000"
 preserveAspectRatio="xMidYMid meet">
<metadata>
Created by potrace 1.14, written by Peter Selinger 2001-2017
</metadata>
<g transform="translate(0.000000,700.000000) scale(0.100000,-0.100000)"
fill="#000000" stroke="none">
<path d="M3419 6995 c-5 -5 -35 -9 -124 -20 -287 -34 -601 -191 -820 -410
-270 -270 -415 -603 -430 -988 -8 -205 -13 -262 -41 -402 -37 -184 -148 -431
-266 -590 -30 -42 -153 -180 -212 -239 -67 -67 -128 -133 -186 -201 -43 -51
-166 -219 -180 -245 -7 -14 -16 -27 -20 -30 -11 -9 -102 -172 -154 -275 -81
-165 -188 -470 -211 -604 -3 -19 -8 -37 -10 -41 -2 -4 -7 -26 -10 -50 -3 -23
-7 -45 -9 -49 -2 -3 -7 -38 -11 -76 -4 -39 -9 -73 -11 -76 -16 -28 -24 -438
-11 -589 30 -343 112 -613 280 -920 147 -268 425 -553 722 -737 147 -91 195
-115 430 -218 81 -35 327 -111 435 -135 158 -34 190 -40 226 -45 21 -3 48 -7
59 -10 11 -2 43 -7 70 -10 28 -3 64 -8 80 -10 205 -27 825 -27 962 -1 12 3 46
7 75 10 29 4 64 8 78 11 13 3 42 7 65 11 57 8 257 51 324 70 375 105 673 249
956 461 89 68 237 208 327 313 207 239 392 632 444 940 3 14 9 48 14 75 61
321 41 745 -51 1104 -129 503 -362 915 -742 1315 -139 146 -244 281 -311 400
-78 138 -160 370 -180 511 -14 102 -17 129 -21 241 -5 140 -13 224 -25 279 -5
22 -11 54 -14 71 -17 95 -55 197 -128 344 -161 321 -449 584 -783 713 -83 32
-221 71 -267 76 -5 1 -8 8 -8 16 0 13 -24 15 -153 15 -85 0 -156 -2 -158 -5z"/>
</g>
</svg>
